<mxfile host="app.diagrams.net" modified="2021-02-25T21:23:48.558Z" agent="5.0 (Macintosh; Intel Mac OS X 10_15_7) AppleWebKit/537.36 (KHTML, like Gecko) Chrome/88.0.4324.192 Safari/537.36" etag="EoHsCbg4aJNlCwiZdiwA" version="14.4.3" type="github">
  <diagram id="C5RBs43oDa-KdzZeNtuy" name="Page-1">
    <mxGraphModel dx="1426" dy="737" grid="1" gridSize="10" guides="1" tooltips="1" connect="1" arrows="1" fold="1" page="1" pageScale="1" pageWidth="827" pageHeight="1169" math="0" shadow="0">
      <root>
        <mxCell id="WIyWlLk6GJQsqaUBKTNV-0" />
        <mxCell id="WIyWlLk6GJQsqaUBKTNV-1" parent="WIyWlLk6GJQsqaUBKTNV-0" />
        <mxCell id="p7kULaYef-mVd5IsEo5U-7" style="edgeStyle=orthogonalEdgeStyle;rounded=0;orthogonalLoop=1;jettySize=auto;html=1;exitX=0.5;exitY=1;exitDx=0;exitDy=0;" edge="1" parent="WIyWlLk6GJQsqaUBKTNV-1" source="WIyWlLk6GJQsqaUBKTNV-3" target="p7kULaYef-mVd5IsEo5U-0">
          <mxGeometry relative="1" as="geometry" />
        </mxCell>
        <UserObject label="Start" link="/app/packages" id="WIyWlLk6GJQsqaUBKTNV-3">
          <mxCell style="rounded=1;whiteSpace=wrap;html=1;fontSize=12;glass=0;strokeWidth=1;shadow=0;fillColor=#d5e8d4;strokeColor=#82b366;" parent="WIyWlLk6GJQsqaUBKTNV-1" vertex="1">
            <mxGeometry x="324" y="140" width="150" height="40" as="geometry" />
          </mxCell>
        </UserObject>
        <mxCell id="i8LHyfqBCvH4AaGKe-vy-9" value="&lt;font style=&quot;font-size: 24px&quot;&gt;View Jade Packages&lt;/font&gt;" style="text;html=1;align=center;verticalAlign=middle;resizable=0;points=[];autosize=1;" parent="WIyWlLk6GJQsqaUBKTNV-1" vertex="1">
          <mxGeometry x="294" y="50" width="240" height="20" as="geometry" />
        </mxCell>
        <mxCell id="p7kULaYef-mVd5IsEo5U-4" style="edgeStyle=orthogonalEdgeStyle;rounded=0;orthogonalLoop=1;jettySize=auto;html=1;exitX=0;exitY=0.5;exitDx=0;exitDy=0;exitPerimeter=0;" edge="1" parent="WIyWlLk6GJQsqaUBKTNV-1" source="p7kULaYef-mVd5IsEo5U-0" target="p7kULaYef-mVd5IsEo5U-1">
          <mxGeometry relative="1" as="geometry" />
        </mxCell>
        <mxCell id="p7kULaYef-mVd5IsEo5U-5" style="edgeStyle=orthogonalEdgeStyle;rounded=0;orthogonalLoop=1;jettySize=auto;html=1;exitX=0.5;exitY=1;exitDx=0;exitDy=0;exitPerimeter=0;entryX=0.5;entryY=0;entryDx=0;entryDy=0;" edge="1" parent="WIyWlLk6GJQsqaUBKTNV-1" source="p7kULaYef-mVd5IsEo5U-0" target="p7kULaYef-mVd5IsEo5U-2">
          <mxGeometry relative="1" as="geometry" />
        </mxCell>
        <mxCell id="p7kULaYef-mVd5IsEo5U-6" style="edgeStyle=orthogonalEdgeStyle;rounded=0;orthogonalLoop=1;jettySize=auto;html=1;exitX=1;exitY=0.5;exitDx=0;exitDy=0;exitPerimeter=0;" edge="1" parent="WIyWlLk6GJQsqaUBKTNV-1" source="p7kULaYef-mVd5IsEo5U-0" target="p7kULaYef-mVd5IsEo5U-3">
          <mxGeometry relative="1" as="geometry" />
        </mxCell>
        <mxCell id="p7kULaYef-mVd5IsEo5U-0" value="View Open, Pended, or Closed" style="strokeWidth=2;html=1;shape=mxgraph.flowchart.decision;whiteSpace=wrap;fillColor=#fff2cc;strokeColor=#d6b656;" vertex="1" parent="WIyWlLk6GJQsqaUBKTNV-1">
          <mxGeometry x="349" y="240" width="100" height="100" as="geometry" />
        </mxCell>
        <mxCell id="p7kULaYef-mVd5IsEo5U-12" style="edgeStyle=orthogonalEdgeStyle;rounded=0;orthogonalLoop=1;jettySize=auto;html=1;exitX=0.5;exitY=1;exitDx=0;exitDy=0;" edge="1" parent="WIyWlLk6GJQsqaUBKTNV-1" source="p7kULaYef-mVd5IsEo5U-1" target="p7kULaYef-mVd5IsEo5U-10">
          <mxGeometry relative="1" as="geometry" />
        </mxCell>
        <mxCell id="p7kULaYef-mVd5IsEo5U-1" value="Open" style="rounded=1;whiteSpace=wrap;html=1;fillColor=#dae8fc;strokeColor=#6c8ebf;" vertex="1" parent="WIyWlLk6GJQsqaUBKTNV-1">
          <mxGeometry x="140" y="380" width="120" height="60" as="geometry" />
        </mxCell>
        <mxCell id="p7kULaYef-mVd5IsEo5U-14" style="edgeStyle=orthogonalEdgeStyle;rounded=0;orthogonalLoop=1;jettySize=auto;html=1;exitX=0.5;exitY=1;exitDx=0;exitDy=0;entryX=0.5;entryY=0;entryDx=0;entryDy=0;" edge="1" parent="WIyWlLk6GJQsqaUBKTNV-1" source="p7kULaYef-mVd5IsEo5U-2" target="p7kULaYef-mVd5IsEo5U-10">
          <mxGeometry relative="1" as="geometry" />
        </mxCell>
        <mxCell id="p7kULaYef-mVd5IsEo5U-2" value="Pended" style="rounded=1;whiteSpace=wrap;html=1;fillColor=#dae8fc;strokeColor=#6c8ebf;" vertex="1" parent="WIyWlLk6GJQsqaUBKTNV-1">
          <mxGeometry x="339" y="380" width="120" height="60" as="geometry" />
        </mxCell>
        <mxCell id="p7kULaYef-mVd5IsEo5U-19" style="edgeStyle=orthogonalEdgeStyle;rounded=0;orthogonalLoop=1;jettySize=auto;html=1;exitX=0.5;exitY=1;exitDx=0;exitDy=0;entryX=0.5;entryY=0;entryDx=0;entryDy=0;" edge="1" parent="WIyWlLk6GJQsqaUBKTNV-1" source="p7kULaYef-mVd5IsEo5U-3" target="p7kULaYef-mVd5IsEo5U-9">
          <mxGeometry relative="1" as="geometry" />
        </mxCell>
        <mxCell id="p7kULaYef-mVd5IsEo5U-3" value="Closed" style="rounded=1;whiteSpace=wrap;html=1;fillColor=#dae8fc;strokeColor=#6c8ebf;" vertex="1" parent="WIyWlLk6GJQsqaUBKTNV-1">
          <mxGeometry x="520" y="380" width="120" height="60" as="geometry" />
        </mxCell>
        <mxCell id="p7kULaYef-mVd5IsEo5U-22" style="edgeStyle=orthogonalEdgeStyle;rounded=0;orthogonalLoop=1;jettySize=auto;html=1;exitX=0.5;exitY=1;exitDx=0;exitDy=0;entryX=0.5;entryY=0;entryDx=0;entryDy=0;" edge="1" parent="WIyWlLk6GJQsqaUBKTNV-1" source="p7kULaYef-mVd5IsEo5U-8" target="p7kULaYef-mVd5IsEo5U-21">
          <mxGeometry relative="1" as="geometry" />
        </mxCell>
        <mxCell id="p7kULaYef-mVd5IsEo5U-8" value="Review" style="rounded=1;whiteSpace=wrap;html=1;fillColor=#dae8fc;strokeColor=#6c8ebf;" vertex="1" parent="WIyWlLk6GJQsqaUBKTNV-1">
          <mxGeometry x="239" y="660" width="120" height="60" as="geometry" />
        </mxCell>
        <mxCell id="p7kULaYef-mVd5IsEo5U-9" value="History" style="rounded=1;whiteSpace=wrap;html=1;fillColor=#f8cecc;strokeColor=#b85450;" vertex="1" parent="WIyWlLk6GJQsqaUBKTNV-1">
          <mxGeometry x="470" y="660" width="120" height="60" as="geometry" />
        </mxCell>
        <mxCell id="p7kULaYef-mVd5IsEo5U-18" style="edgeStyle=orthogonalEdgeStyle;rounded=0;orthogonalLoop=1;jettySize=auto;html=1;exitX=1;exitY=0.5;exitDx=0;exitDy=0;entryX=0.5;entryY=0;entryDx=0;entryDy=0;" edge="1" parent="WIyWlLk6GJQsqaUBKTNV-1" source="p7kULaYef-mVd5IsEo5U-10" target="p7kULaYef-mVd5IsEo5U-9">
          <mxGeometry relative="1" as="geometry" />
        </mxCell>
        <mxCell id="p7kULaYef-mVd5IsEo5U-20" style="edgeStyle=orthogonalEdgeStyle;rounded=0;orthogonalLoop=1;jettySize=auto;html=1;exitX=0.5;exitY=1;exitDx=0;exitDy=0;" edge="1" parent="WIyWlLk6GJQsqaUBKTNV-1" source="p7kULaYef-mVd5IsEo5U-10" target="p7kULaYef-mVd5IsEo5U-8">
          <mxGeometry relative="1" as="geometry" />
        </mxCell>
        <mxCell id="p7kULaYef-mVd5IsEo5U-10" value="Review or View History" style="rhombus;whiteSpace=wrap;html=1;fillColor=#fff2cc;strokeColor=#d6b656;" vertex="1" parent="WIyWlLk6GJQsqaUBKTNV-1">
          <mxGeometry x="249" y="520" width="100" height="100" as="geometry" />
        </mxCell>
        <mxCell id="p7kULaYef-mVd5IsEo5U-21" value="Package Editor" style="rounded=1;whiteSpace=wrap;html=1;fillColor=#f8cecc;strokeColor=#b85450;" vertex="1" parent="WIyWlLk6GJQsqaUBKTNV-1">
          <mxGeometry x="239" y="800" width="120" height="60" as="geometry" />
        </mxCell>
      </root>
    </mxGraphModel>
  </diagram>
</mxfile>
